<?xml version="1.0" encoding="UTF-8"?>
<svg version="1.1" xmlns="http://www.w3.org/2000/svg" width="225" height="225">
<path d="M0 0 C74.25 0 148.5 0 225 0 C225 74.25 225 148.5 225 225 C150.75 225 76.5 225 0 225 C0 150.75 0 76.5 0 0 Z " fill="#B8B8B8" transform="translate(0,0)"/>
<path d="M0 0 C74.25 0 148.5 0 225 0 C223.02 2.31 221.04 4.62 219 7 C217.94470133 8.50645694 216.90553275 10.02450959 215.89187622 11.55929565 C210.30968644 19.05054771 204.3334271 24.88653519 194.84382117 26.33520257 C184.48809722 27.46357761 174.02877049 27.10803764 163.63538885 26.82509089 C158.75121049 26.7115144 153.86677097 26.70191338 148.98147583 26.68063354 C139.75788696 26.62498641 130.53820093 26.47771161 121.31632054 26.29634273 C110.80637973 26.09418947 100.29623883 25.99594546 89.78483367 25.9058249 C68.18772192 25.71836276 46.59410809 25.402369 25 25 C25.03318455 26.32740078 25.03318455 26.32740078 25.06703949 27.68161774 C25.59950962 49.31944748 25.99537157 70.95613325 26.24349213 92.59915924 C26.36670976 103.06656179 26.53432369 113.52956503 26.81054688 123.99414062 C27.05149611 133.12681789 27.20498745 142.25630839 27.25812387 151.39207602 C27.28914662 156.22140314 27.36072782 161.04162423 27.53752136 165.86799622 C28.69332368 198.6477227 28.69332368 198.6477227 17.93837786 210.64405775 C12.79101328 215.99434119 7.13416063 220.81547971 1 225 C0.67 225 0.34 225 0 225 C0 150.75 0 76.5 0 0 Z " fill="#FCFBFC" transform="translate(0,0)"/>
<path d="M0 0 C0 73.92 0 147.84 0 224 C-73.92 224 -147.84 224 -224 224 C-222.02 221.69 -220.04 219.38 -218 217 C-216.94242238 215.49337606 -215.90074423 213.97530366 -214.88418579 212.44070435 C-209.30739667 204.97144842 -203.34186331 199.11756876 -193.87118733 197.66479743 C-183.5737623 196.53706356 -173.17257214 196.89189299 -162.83731794 197.17490911 C-157.9811697 197.28849416 -153.12475821 197.29808726 -148.26748657 197.31936646 C-139.0970106 197.37501123 -129.93046059 197.52228237 -120.76170313 197.70365727 C-110.31222398 197.90581832 -99.86254343 198.00405641 -89.41159129 198.0941751 C-67.93888092 198.28163178 -46.46968906 198.59762049 -25 199 C-25.02212303 198.12021988 -25.04424606 197.24043976 -25.06703949 196.33399963 C-25.59952897 174.8213559 -25.99538049 153.30986298 -26.24349213 131.79199219 C-26.36670566 121.38510949 -26.53431066 110.98265222 -26.81054688 100.57861328 C-27.05150996 91.49867353 -27.20499043 82.42193945 -27.25812387 73.33889103 C-27.28914464 68.53748567 -27.36070986 63.74524025 -27.53752136 58.94680786 C-28.69332254 26.35993003 -28.69332254 26.35993003 -17.93837786 14.37037468 C-4.1103445 0 -4.1103445 0 0 0 Z " fill="#747474" transform="translate(225,1)"/>
<path d="M0 0 C0 36.63 0 73.26 0 111 C7.26 111 14.52 111 22 111 C22 115.62 22 120.24 22 125 C30.25 125 38.5 125 47 125 C47 131.93 47 138.86 47 146 C12.35 146 -22.3 146 -58 146 C-58 139.07 -58 132.14 -58 125 C-49.75 125 -41.5 125 -33 125 C-33 120.38 -33 115.76 -33 111 C-25.74 111 -18.48 111 -11 111 C-8.72716303 88.02464775 -8.72716303 88.02464775 -13.54003906 66.10839844 C-17.45977644 62.14122097 -22.25429076 60.49886266 -27.50146484 58.88867188 C-31.71096832 57.39144766 -35.1654681 54.84610391 -38.8125 52.3125 C-40.19960505 51.39828265 -41.59017418 50.4892967 -42.984375 49.5859375 C-43.98500977 48.9357666 -43.98500977 48.9357666 -45.00585938 48.27246094 C-46.97129049 47.01831954 -48.95491752 45.80268722 -50.953125 44.6015625 C-51.56438232 44.23377686 -52.17563965 43.86599121 -52.80541992 43.48706055 C-54.45090476 42.50415943 -56.10220623 41.53101445 -57.75390625 40.55859375 C-58.49511719 40.04425781 -59.23632812 39.52992187 -60 39 C-60 38.34 -60 37.68 -60 37 C-58.60498047 35.89355469 -58.60498047 35.89355469 -56.6171875 34.671875 C-55.8732373 34.209021 -55.12928711 33.74616699 -54.36279297 33.26928711 C-53.13133545 32.51723999 -53.13133545 32.51723999 -51.875 31.75 C-50.12465789 30.66331126 -48.37467194 29.57604869 -46.625 28.48828125 C-45.70332031 27.91803223 -44.78164062 27.3477832 -43.83203125 26.76025391 C-39.15723367 23.85462541 -34.51663132 20.89571416 -29.875 17.9375 C-28.95928223 17.35564941 -28.04356445 16.77379883 -27.10009766 16.17431641 C-22.68268123 13.36408933 -18.27804861 10.53681023 -13.8984375 7.66796875 C-13.11098145 7.15306885 -12.32352539 6.63816895 -11.51220703 6.10766602 C-10.03913331 5.14220339 -8.56861198 4.17283147 -7.10107422 3.19897461 C-2.22025223 0 -2.22025223 0 0 0 Z " fill="#000000" transform="translate(118,42)"/>
<path d="M0 0 C0 25.08 0 50.16 0 76 C-3.54646328 74.58141469 -6.0205717 73.48678925 -9.08984375 71.453125 C-9.86320068 70.94483154 -10.63655762 70.43653809 -11.43334961 69.9128418 C-12.67290405 69.08973511 -12.67290405 69.08973511 -13.9375 68.25 C-15.72855033 67.0732801 -17.52024067 65.8975339 -19.3125 64.72265625 C-20.24320313 64.11180176 -21.17390625 63.50094727 -22.1328125 62.87158203 C-26.87804157 59.77409173 -31.65596078 56.72853418 -36.4375 53.6875 C-37.35861572 53.10033203 -38.27973145 52.51316406 -39.22875977 51.90820312 C-43.22202208 49.36942129 -47.22182326 46.84849805 -51.27734375 44.41015625 C-52.2055896 43.85098511 -52.2055896 43.85098511 -53.15258789 43.28051758 C-54.74045757 42.33049661 -56.3347901 41.39129994 -57.9296875 40.453125 C-58.95449219 39.73382813 -58.95449219 39.73382813 -60 39 C-60 38.34 -60 37.68 -60 37 C-58.60498047 35.89355469 -58.60498047 35.89355469 -56.6171875 34.671875 C-55.8732373 34.209021 -55.12928711 33.74616699 -54.36279297 33.26928711 C-53.13133545 32.51723999 -53.13133545 32.51723999 -51.875 31.75 C-50.12465789 30.66331126 -48.37467194 29.57604869 -46.625 28.48828125 C-45.70332031 27.91803223 -44.78164062 27.3477832 -43.83203125 26.76025391 C-39.15723367 23.85462541 -34.51663132 20.89571416 -29.875 17.9375 C-28.95928223 17.35564941 -28.04356445 16.77379883 -27.10009766 16.17431641 C-22.68268123 13.36408933 -18.27804861 10.53681023 -13.8984375 7.66796875 C-13.11098145 7.15306885 -12.32352539 6.63816895 -11.51220703 6.10766602 C-10.03913331 5.14220339 -8.56861198 4.17283147 -7.10107422 3.19897461 C-2.22025223 0 -2.22025223 0 0 0 Z " fill="#FE0000" transform="translate(118,42)"/>
</svg>
